<?xml version="1.0" encoding="utf-8"?>
<!-- Generator: Adobe Illustrator 15.0.0, SVG Export Plug-In . SVG Version: 6.00 Build 0)  -->
<!DOCTYPE svg PUBLIC "-//W3C//DTD SVG 1.1//EN" "http://www.w3.org/Graphics/SVG/1.1/DTD/svg11.dtd">
<svg version="1.1" id="レイヤー_1" xmlns="http://www.w3.org/2000/svg" xmlns:xlink="http://www.w3.org/1999/xlink" x="0px"
	 y="0px" width="201.26px" height="192.76px" viewBox="0 0 201.26 192.76" enable-background="new 0 0 201.26 192.76"
	 xml:space="preserve">
<g>
	<path fill="#00A0E9" d="M126.761,19.334c0,0-4.234-0.567-5.041,3.211c-0.81,3.777,3.567,5.253,3.567,5.253
		c26.884,5.879,44.61,31.967,39.839,59.343c-3.508,20.163-18.269,35.528-36.703,40.813c18.333-14.359,27.433-38.702,21.178-62.67
		c-8.211-31.479-39.848-50.614-71.352-43.621c0,0-4.081,1.24-3.251,5.012c0.832,3.773,5.423,3.304,5.423,3.304
		c26.907-5.8,53.851,10.586,60.861,37.477c5.109,19.581-1.729,39.453-15.979,51.935c1.152-6.137,1.473-12.488,0.786-17.06
		c-5.716-37.917-31.067-46.208-38.497-49.636c-7.082-3.267-16.818-5.979-18.712-18.242c-2.715-17.579-14.924-22.29-14.924-22.29
		c-1.248-8.082-8.891-10.526-9.494-10.771c0.925,5.314,0.434,11.605,0.434,11.605s0.019,0.386-3.928,1.103
		c-3.957,0.721-4.895,3.349-5.253,4.216c-0.366,0.872-0.481,2.164-2.287,3.97c-1.813,1.807-4.035,2.244-4.035,2.244
		c-3.155-0.472-2.153,2.6-2.153,2.6c-0.125,3.447,1.438,3.755,1.438,3.755c-0.813,1.34,0.347,3.36,1.25,3.96
		c0.91,0.595,4.242,1.019,7.511,4.895c3.269,3.873,6.039,8.57,3.449,14.584c-2.583,6.012-1.67,11.186,1.982,20.851
		c3.654,9.664,5.101,18.723,5.707,25.268c0.608,6.545,0.071,18.037-0.686,24.735c-0.759,6.697-2.813,6.697-4.108,7.153
		c-1.296,0.458-2.279,1.979-1.215,4.263c1.062,2.286,3.269,1.142,3.269,1.142c0.911,0.458,2.348,1.828,5.931-0.687
		c0.634-0.445,1.081-1.064,1.447-1.758c-0.115,0.989,0.132,2.012,1.035,2.594c1.894,1.204,3.207-0.202,3.207-0.202
		c0.428,0.92,7.638,1.587,11.209,0.732c10.933,2.398,35.895,2.573,45.688,0.117c28.723-0.035,54.14-20.645,59.241-49.919
		C179.176,56.563,158.326,26.036,126.761,19.334z M62.192,127.082c-0.136,0.773-0.081,2.22-0.242,3.431
		c-4.886,0.01-6.397,1.565-7.494,2.279c-0.207,0.137-0.395,0.367-0.571,0.63c0.748-3.339,0.186-8.202,0.088-13.948
		c-0.151-8.448,5.402-26.335,5.402-26.335s2.207,4.947,7.154,7.687c4.95,2.739,6.62,5.86,6.62,5.86
		C62.798,113.613,62.422,125.789,62.192,127.082z"/>
	<g>
		<path fill="#00A0E9" d="M21.745,179.312c-1.432,0.69-2.613,1.035-3.541,1.035c-0.89,0-1.817-0.206-2.786-0.619
			c-0.966-0.412-1.74-0.936-2.321-1.569c-0.619-0.652-1.122-1.545-1.509-2.678s-0.58-2.266-0.58-3.399
			c0-2.072,0.58-4.098,1.741-6.075c1.354-2.304,3.133-3.868,5.339-4.694c0.89-0.345,2.107-0.538,3.656-0.576V179.312z
			 M21.684,186.788h12.282v-1.093c-1.418-0.038-2.454-0.422-3.105-1.15c-0.518-0.651-0.796-2.224-0.834-4.716
			c0,0-0.04-30.033,0-31.702c0.697-1.398,3.549-3.14,3.549-3.14c-10.254-1.163-15.122,4.358-16.321,6.087
			c0.489,0.005,1.844,0.44,2.347,0.632c1.081,0.479,1.747,1.304,1.998,2.474c0.096,0.44,0.146,1.485,0.146,3.134v1.898
			c-2.268,0.058-4.124,0.211-5.565,0.46c-4.324,0.786-7.775,2.606-10.351,5.463c-2.518,2.799-3.776,5.981-3.776,9.547
			c0,1.61,0.288,3.24,0.865,4.889c0.613,1.764,1.478,3.183,2.593,4.256c1.824,1.744,4.147,2.827,6.971,3.249
			c0,0,2.32-5.392,9.202-5.392C21.678,183.564,21.684,186.788,21.684,186.788z"/>
		<path fill="#00A0E9" d="M199.562,146.953c-2.147,1.534-3.332,3.682-3.332,3.682v29.602c0.035,2.117,0.125,3.4,0.272,3.854
			c0.324,1.104,1.101,1.664,2.333,1.683v1.031h-13.634v-1.031c1.156-0.034,2.001-0.399,2.524-1.086
			c0.326-0.523,0.509-1.291,0.543-2.307c0.019-0.651,0.044-1.365,0.082-2.145V158.82c0-1.535-0.056-2.532-0.163-2.985
			c-0.291-1.555-1.573-2.598-3.854-3.121C185.729,151.647,187.968,144.622,199.562,146.953z"/>
		<path fill="#00A0E9" d="M108.293,146.953c-2.147,1.534-3.332,3.682-3.332,3.682v29.602c0.034,2.117,0.124,3.4,0.272,3.854
			c0.323,1.104,1.1,1.664,2.333,1.683v1.031H93.931v-1.031c1.156-0.034,2.001-0.399,2.525-1.086
			c0.326-0.523,0.508-1.291,0.542-2.307c0.019-0.651,0.044-1.365,0.083-2.145V158.82c0-1.535-0.056-2.532-0.163-2.985
			c-0.292-1.555-1.574-2.598-3.855-3.121C94.458,151.647,96.698,144.622,108.293,146.953z"/>
		<path fill="#00A0E9" d="M177.079,154.843c1.056,0,1.955,0.417,2.695,1.242c0.642,0.706,0.966,1.538,0.966,2.488
			c0,1.105-0.42,2.025-1.242,2.761c-0.707,0.643-1.537,0.967-2.486,0.967c-1.103,0-2.024-0.418-2.765-1.243
			c-0.644-0.706-0.968-1.541-0.968-2.51c0-1.072,0.42-1.986,1.244-2.737C175.218,155.166,176.064,154.843,177.079,154.843z
			 M180.441,164.433v16.796c0,1.187,0.028,2.024,0.08,2.528c0.056,0.499,0.155,0.919,0.29,1.256
			c0.323,0.599,0.832,0.908,1.523,0.921v0.877H171.14v-0.877c0.817-0.027,1.407-0.336,1.775-0.921
			c0.232-0.461,0.364-1.116,0.395-1.959c0-0.477,0.014-1.087,0.045-1.825v-8.642c0-0.926-0.041-1.589-0.113-1.987
			c-0.094-1.001-1.164-1.693-3.209-2.078c1.815-1.124,3.182-1.903,4.109-2.335C175.729,165.48,177.826,164.892,180.441,164.433z"/>
		<path fill="#00A0E9" d="M61.927,184.679c-0.255-0.379-0.504-0.922-0.648-1.522c-0.217-0.919-1.091-3.769-1.091-9.722
			c0-5.949,1.11-13.069,1.11-13.069c-5.409,0.639-9.371,2.439-11.892,4.639c1.618,0.349,2.686,0.803,3.196,1.367
			c0.497,0.637,0.74,6.473,0.74,8.255v5.638c-2.116,1.099-6.265,2.497-9.353-0.474c-1.066-1.025-1.578-2.35-1.578-3.933
			c0-1.169,0.353-2.779,1.066-4.837c0.979-2.859,1.47-4.745,1.47-5.655c0-0.984-0.255-1.877-0.763-2.678
			c-0.345-0.539-0.905-1.087-1.662-1.639c0.184-1.218,1.28-2.63,1.28-2.63c-6.039,1.379-7.557,6.105-7.557,6.105
			c0.086-0.004,0.174-0.017,0.265-0.023c2.59,0.565,3.888,1.59,3.888,3.07c0,0.619-0.173,1.2-0.516,1.749
			c-0.401,0.635-0.982,1.311-1.655,2.1c-1.069,1.254-1.813,2.216-2.363,2.92c-2.379,2.876-1.053,7.685-0.334,8.911
			c0.715,1.229,1.729,2.159,3.039,2.798c1.511,0.729,3.355,1.164,5.537,1.309l9.236-5.813v5.266h11.125v-1.039
			C63.297,185.738,62.454,185.373,61.927,184.679z"/>
		<path fill="#00A0E9" d="M90.249,183.947c-0.33-1.075-1.217-4.566-1.217-8.296c0-3.729,0.259-5.366,0.43-6.877
			c0.167-1.507-0.09-2.339-0.272-2.998c-0.475-1.718-1.501-2.529-3.673-3.628c-1.984-0.989-4.127-1.482-6.424-1.482
			c-1.589,0-3.648,0.342-6.181,1.021c-1.329,0.367-2.414,0.552-3.255,0.552c-0.901,0-1.813-0.187-2.736-0.549
			c-0.725-0.34-1.384-0.846-1.679-1.61c0,0-0.786,5.799,2.302,7.804c3.092,2.007,5.914,0.396,7.676-1.366
			c0,0-1.367-0.406-0.876-1.249c0.393-0.506,0.715-0.888,0.958-1.134c0.822-0.854,1.743-1.283,2.764-1.283
			c1.204,0,2.151,0.499,2.845,1.5c0.477,0.674,0.713,1.929,0.713,3.765v3.246c-0.953-0.075-1.671-0.116-2.166-0.116
			c-4.273,0-7.868,1.038-10.787,3.112c-5.254,3.716-3.512,9.733-0.74,11.193c1.678,1.073,3.566,1.608,5.665,1.608
			c2.76,0,5.433-1.078,8.028-3.241c0.236,0.782,0.437,1.319,0.602,1.61c0.201,0.401,0.546,0.83,1.041,1.281h9.225
			C91.324,185.884,90.577,184.93,90.249,183.947z M81.624,182.802c-1.25,0.575-2.35,0.862-3.307,0.862
			c-1.196,0-2.241-0.364-3.142-1.09c-1.064-0.854-1.595-2.009-1.595-3.463c0-2.071,0.999-3.772,3.002-5.102
			c1.359-0.891,3.036-1.49,5.042-1.8V182.802z"/>
		<g>
			<path fill="none" d="M150.083,179.111c0,1.454,0.535,2.608,1.602,3.463c0.898,0.726,1.945,1.09,3.142,1.09
				c0.955,0,2.055-0.287,3.305-0.862V172.21c-2.005,0.31-3.685,0.909-5.043,1.8C151.086,175.339,150.083,177.04,150.083,179.111z"/>
			<path fill="#00A0E9" d="M166.754,183.947c-0.326-1.075-1.22-4.566-1.22-8.296c0-3.729,0.265-5.366,0.432-6.877
				c0.171-1.507-0.09-2.339-0.274-2.998c-0.472-1.718-1.497-2.529-3.667-3.628c-1.986-0.989-4.127-1.482-6.426-1.482
				c-1.587,0-3.648,0.342-6.179,1.021c-1.334,0.367-2.419,0.552-3.257,0.552c-0.899,0-1.812-0.187-2.739-0.549
				c-0.721-0.34-1.38-0.846-1.676-1.61c0,0-0.786,5.799,2.305,7.804c3.09,2.007,5.908,0.396,7.67-1.366c0,0-1.365-0.406-0.876-1.249
				c0.393-0.506,0.715-0.888,0.962-1.134c0.822-0.854,1.743-1.283,2.765-1.283c1.204,0,2.15,0.499,2.847,1.5
				c0.472,0.674,0.711,1.929,0.711,3.765v3.246c-0.95-0.075-1.67-0.116-2.166-0.116c-4.273,0-7.867,1.038-10.791,3.112
				c-4.844,3.321-3.897,9.654-0.74,11.193c1.684,1.073,3.57,1.608,5.669,1.608c2.761,0,5.435-1.078,8.028-3.241
				c0.238,0.782,0.438,1.319,0.603,1.61c0.199,0.401,0.546,0.83,1.037,1.281h9.225C167.827,185.884,167.085,184.93,166.754,183.947z
				 M158.131,182.802c-1.25,0.575-2.35,0.862-3.305,0.862c-1.196,0-2.243-0.364-3.142-1.09c-1.066-0.854-1.602-2.009-1.602-3.463
				c0-2.071,1.003-3.772,3.005-5.102c1.358-0.891,3.038-1.49,5.043-1.8V182.802z"/>
		</g>
		<path fill="#00A0E9" d="M137.191,184.885c-2.145,0-3.36-0.909-3.646-2.731c-0.076-0.437,1.576-12.337,1.576-12.337
			c-0.41-0.216-1.633-0.942-1.581-2.678c0.05-1.63,1.625-2.952,4.34-2.952c0.738,0,1.557,0.283,1.973,0.502
			c0.261-0.408,0.466-0.751,0.542-1.646c0.148-1.721-0.958-3.774-4.023-3.734c-0.027,0.065-0.012,0.154-0.071,0.197
			c-1.73,1.292-3.426,1.102-4.225,0.947c-0.038-0.008-0.067-0.027-0.105-0.036v-7.335c0,0,1.012-2.148,2.849-3.682
			c-9.911-2.331-11.824,4.693-13.019,5.761c1.949,0.523,3.046,1.566,3.295,3.121c0.069,0.344,0.111,1.036,0.129,2.006
			c-0.181,0.092-0.366,0.176-0.571,0.236c-4.017,1.192-5.118-1.837-5.136-3.231c-0.002-0.072-0.044-0.133-0.069-0.198
			c-2.475,0.956-3.934,3.53-3.934,6.351c0,2.273,1.396,3.918,1.656,4.327c0.185-1.265,0.583-2.811,3.834-2.811
			c2.189,0,3.418,0.167,4.084,0.584v2.72v2.985v9.817c0,1.926,0.058,3.31,0.172,4.153c0.23,1.671,0.919,2.935,2.068,3.798
			c1.323,0.989,2.96,1.484,4.916,1.484c2.338,0,4.311-0.67,5.921-2.011c1.17-0.955,2.032-2.533,2.588-4.737
			C139.395,184.51,138.206,184.885,137.191,184.885z"/>
	</g>
</g>
</svg>
