<?xml version="1.0" encoding="utf-8"?>
<!-- Generator: Adobe Illustrator 15.0.0, SVG Export Plug-In . SVG Version: 6.00 Build 0)  -->
<!DOCTYPE svg PUBLIC "-//W3C//DTD SVG 1.1//EN" "http://www.w3.org/Graphics/SVG/1.1/DTD/svg11.dtd">
<svg version="1.1" id="レイヤー_1" xmlns="http://www.w3.org/2000/svg" xmlns:xlink="http://www.w3.org/1999/xlink" x="0px"
	 y="0px" width="229.326px" height="194.559px" viewBox="-13.64 0 229.326 194.559"
	 enable-background="new -13.64 0 229.326 194.559" xml:space="preserve">
<g>
	<path fill="#F6AA00" d="M180.133,128.039c-19.848,4.006-26.938,1.91-38.684-2.742c-5.402-2.137-10.837-6.465-14.943-11.362
		c0.339,0.275,0.688,0.551,1.05,0.823c8.353,6.334,22.182,10.974,34.465,12.154c30.474,2.951,51.562-13.934,53.666-30.304
		c0,0-10.922-2.567-28.295,8.048c-17.269,10.553-24.656,11.008-37.291,10.654c-5.8-0.164-12.373-2.367-17.899-5.559
		c0.403,0.143,0.817,0.276,1.241,0.408c10.011,3.094,24.593,2.723,36.543-0.365c29.636-7.646,43.683-30.732,40.063-46.838
		c0,0-11.135,1.326-23.834,17.242c-12.625,15.823-19.411,18.782-31.407,22.77c-5.529,1.836-12.506,2.006-18.817,0.879
		c0.469-0.006,0.926,0.006,1.411-0.02c10.453-0.521,24.048-5.863,34.214-12.849c25.225-17.317,30.536-43.812,21.618-57.707
		c0,0-10.002,5.048-16.502,24.349c-6.44,19.188-11.81,24.282-21.709,32.131c-3.437,2.723-7.959,4.838-12.678,6.188
		c8.971-4.58,18.639-13.399,25.174-22.557c17.789-24.902,13.717-51.619,0.584-61.632c0,0-7.679,8.179-7.166,28.53
		c0.49,20.239-2.81,26.864-9.431,37.614c-2.737,4.455-7.229,8.629-12.141,11.748c7.543-7.195,14.36-19.792,17.61-31.496
		c8.196-29.479-4.772-53.191-20.531-58.104c0,0-4.422,10.306,3.013,29.255c7.388,18.852,6.563,26.202,4.015,38.577
		c-1.162,5.66-4.455,11.733-8.539,16.617c0.196-0.355,0.396-0.721,0.586-1.095c4.772-9.327,6.951-23.766,5.979-36.064
		c-2.386-30.504-22.679-48.351-39.159-47.576c0,0-0.639,11.195,12.828,26.459c13.396,15.188,15.131,22.378,16.967,34.873
		c0.852,5.76-0.188,12.65-2.389,18.666c0.072-0.45,0.161-0.887,0.221-1.355c1.299-10.399-1.596-24.704-6.713-35.933
		C110.582,14.615,85.4,4.786,70.17,11.154c0,0,3.234,10.731,21.115,20.478c17.782,9.687,21.864,15.851,27.881,26.965
		c2.416,4.473,3.774,10.25,4.074,15.91c-2.498-10.096-9.962-22.215-18.438-30.84C83.37,21.828,56.347,21.198,44.222,32.392
		c0,0,6.711,8.981,26.846,12.021c20.018,3.021,25.967,7.415,35.404,15.81c8.207,7.285,13.869,21.952,12.023,30.617
		c-2.729-3.259-7.311-7.925-13.266-10.973C95.3,74.774,81.255,68.708,71.624,68.085c-9.629-0.625-20.887-1.068-29.258,2.281
		c-8.379,3.346-15.1,8.18-17.648,8.235c-2.559,0.063-8.705-3.521-4.08-11.248c0,0,4.811,0.318,6.248-3.485
		c1.428-3.804,6.676-13.967,9.205-16.298c2.531-2.33,3.006-5.101,1.643-6.005c0,0,0.701-2.615-0.975-2.938
		c-1.678-0.324-3.438,0.313-5.951,1.96c-2.521,1.649-8.203,4.505-10.596,4.884c-2.381,0.391-2.281-0.483-3.717-0.573
		c-1.447-0.088-9.373,1.512-9.373,1.512s-0.166-2.242-2.52-4.992c-2.357-2.75-2.652-4.208-2.652-4.208s-4.33,7.227-3.588,12.768
		c0.73,5.545,2.625,7.822,2.15,10.195c-0.471,2.369-6.016,11.076-0.824,24.639c5.199,13.558,14.395,15.874,14.211,21.038
		c-0.195,5.155,0.537,5.489,2.02,9.077c1.486,3.589,0.566,6.125-3.93,10.183c-4.328,3.906-3.709,3.69-6.887,4.896
		c-3.162,1.213-5.973,3.771-10.43,9.886c-4.449,6.118-2.568,4.217-5.553,5.868c-2.984,1.642-3.949,4.865-0.863,4.629
		c3.078-0.247,5.375,1.287,8.559,0.076c3.16-1.213,4.311-1.627,6.338-6.125c2.041-4.485,2.252-9.561,10.078-12.176
		c7.814-2.621,8.289-4.992,9.16-5.363c0.871-0.36,12.279,5.873,14.996,6.656c2.727,0.779,9.17,2.604,12.535,0.979
		c3.365-1.627,1.492-2.002-0.092-3.295c-1.596-1.293-1.021-2.644-1.838-3.429c-0.816-0.778-5.674-1.797-9.102-2.34
		c-3.43-0.543-6.842-2.889-8.047-4.162c-1.215-1.272,4.311-4.472,5.879-8.018c1.557-3.541,16.943-25.518,30.033-20.382
		c13.082,5.142,15.063,9.298,12.516,13.128c-2.549,3.834-0.389,10.8,4.014,11.906c4.395,1.104,1.678,9.711-1.771,12.871
		c-3.439,3.164-9.139,6.4-12.006,7.734c-2.855,1.338-1.686,2.907,0.521,3.028c2.199,0.123,3.904,1.013,6.404,0.698
		c2.492-0.309,5.471-0.153,7.557-3.42c2.094-3.271,8.055-14.62,8.203-16.266c0.139-1.639,0.967-2.748,4.182-1.789
		c3.236,0.959,7.631,3.012,9.492,3.305c1.862,0.283,3.646,1.158,3.532,3.841c-0.131,2.68,2.957,6.704-0.75,9.446
		c-3.719,2.742-4.19,3.213-7.045,5.498c-2.867,2.285-4.792,5.898-1.132,5.256c3.662-0.646,4.439,3.183,9.431-2.182
		c4.984-5.38,6.235-11.412,6.228-13.785c0-2.369,1.05-7.041,1.113-9.992c0.073-2.952-2.234-6.381-4.99-7.344
		c-2.271-0.792,1.293-3.729,5.332-3.143c0.713,1.761,1.646,3.593,2.854,5.459c5.683,8.807,17.104,17.9,28.236,23.213
		c27.616,13.191,53.211,4.539,60.793-10.125C209.474,130.151,200.09,124.008,180.133,128.039z"/>
	<g>
		<path fill="#F6AA00" d="M15.143,165.252c-1.445-0.467-3.393-0.701-5.83-0.701H-6.455v29.742h8.184v-23.301h7.105
			c1.309,0.021,2.199,0.199,2.678,0.539c1.01,0.729,1.516,1.934,1.516,3.592v19.17h8.189v-18.246
			C21.234,170.306,19.213,166.709,15.143,165.252z"/>
		<rect x="28.881" y="153.576" fill="#F6AA00" width="8.188" height="8.033"/>
		<rect x="28.881" y="164.551" fill="#F6AA00" width="8.188" height="29.742"/>
		<path fill="#F6AA00" d="M66.736,165.252c-1.447-0.467-3.396-0.701-5.836-0.701H45.133v29.742h8.191v-23.301h7.1
			c1.307,0.021,2.199,0.199,2.674,0.539c1.012,0.729,1.516,1.934,1.516,3.592v19.17h8.189v-18.246
			C72.822,170.306,70.801,166.709,66.736,165.252z"/>
		<path fill="#F6AA00" d="M87.199,165.328c-2.357,0.732-4.318,2.164-5.863,4.291c-1.904,2.67-2.859,5.813-2.859,9.428
			c0,3.681,0.799,6.748,2.385,9.215c1.604,2.55,3.832,4.304,6.662,5.259c1.572,0.513,3.674,0.772,6.314,0.772h10.886v-6.442h-9.989
			c-2.389-0.019-4.057-0.349-5.014-0.985c-1.352-0.912-2.094-2.334-2.234-4.259h17.237v-6.444H87.486
			c0.141-1.488,0.482-2.623,1.047-3.396c0.773-1.144,2.545-1.729,5.305-1.772h10.886v-6.441H93.246
			C90.865,164.551,88.85,164.812,87.199,165.328z"/>
		<path fill="#F6AA00" d="M124.379,153.576h-8.187v10.975h-5.25v6.441h5.25v12.102c0,1.982,0.074,3.349,0.233,4.107
			c0.378,2.031,1.164,3.646,2.361,4.844c1.512,1.498,3.922,2.248,7.226,2.248h5.922v-6.442h-3.209c-1.752,0-2.968-0.479-3.664-1.444
			c-0.451-0.646-0.685-2.226-0.685-4.72v-10.692h7.558v-6.441h-7.558L124.379,153.576L124.379,153.576z"/>
		<path fill="#F6AA00" d="M157.892,164.823c-1.195-0.182-3.246-0.271-6.146-0.271h-13.813v6.441h13.813
			c0.797,0,1.614,0.051,2.469,0.141c1.351,0.144,2.373,0.673,3.068,1.603c0.479,0.701,0.704,1.843,0.687,3.427h-10.007
			c-1.707,0-3.174,0.067-4.409,0.209c-2.484,0.28-4.339,1.157-5.564,2.635c-1.469,1.756-2.206,3.908-2.206,6.463
			c0,1.971,0.502,3.713,1.493,5.201c1.285,1.961,3.226,3.098,5.802,3.418c1.096,0.139,3.041,0.207,5.84,0.207h17.242v-16.799
			c0-2.775-0.313-5.004-0.957-6.689C163.81,167.365,161.377,165.367,157.892,164.823z M157.97,187.851h-9.443
			c-1.399,0-2.397-0.136-3.002-0.403c-0.875-0.386-1.313-1.104-1.313-2.146c0-0.891,0.297-1.575,0.906-2.063
			c0.525-0.422,1.213-0.633,2.068-0.633c0.17,0,0.4,0,0.674,0c0.287,0,0.51,0,0.664,0h9.443v5.246H157.97z"/>
		<rect x="173.804" y="153.576" fill="#F6AA00" width="8.19" height="8.033"/>
		<rect x="173.804" y="164.551" fill="#F6AA00" width="8.19" height="29.742"/>
		<rect x="190.06" y="153.576" fill="#F6AA00" width="8.187" height="40.717"/>
	</g>
</g>
</svg>
